<?xml version="1.0" encoding="UTF-8" standalone="no"?>
<!-- Created with Inkscape (http://www.inkscape.org/) -->

<svg
   xmlns:dc="http://purl.org/dc/elements/1.1/"
   xmlns:cc="http://creativecommons.org/ns#"
   xmlns:rdf="http://www.w3.org/1999/02/22-rdf-syntax-ns#"
   xmlns:svg="http://www.w3.org/2000/svg"
   xmlns="http://www.w3.org/2000/svg"
   xmlns:sodipodi="http://sodipodi.sourceforge.net/DTD/sodipodi-0.dtd"
   xmlns:inkscape="http://www.inkscape.org/namespaces/inkscape"
   width="35mm"
   height="18mm"
   viewBox="0 0 124.01575 63.779528"
   id="svg6379"
   version="1.1"
   inkscape:version="0.91 r13725"
   sodipodi:docname="Silicon Labs 2015.svg">
  <defs
     id="defs6381">
    <clipPath
       id="clipPath4170"
       clipPathUnits="userSpaceOnUse">
      <path
         style="clip-rule:evenodd"
         inkscape:connector-curvature="0"
         id="path4172"
         d="m 52.98,773.7 103.26,0 0,-77.46 -103.26,0 0,77.46 z" />
    </clipPath>
  </defs>
  <sodipodi:namedview
     id="base"
     pagecolor="#ffffff"
     bordercolor="#666666"
     borderopacity="1.0"
     inkscape:pageopacity="0.0"
     inkscape:pageshadow="2"
     inkscape:zoom="2.8"
     inkscape:cx="162.35645"
     inkscape:cy="-10.692859"
     inkscape:document-units="px"
     inkscape:current-layer="layer1"
     showgrid="false"
     inkscape:window-width="1920"
     inkscape:window-height="1018"
     inkscape:window-x="-8"
     inkscape:window-y="-8"
     inkscape:window-maximized="1" />
  <metadata
     id="metadata6384">
    <rdf:RDF>
      <cc:Work
         rdf:about="">
        <dc:format>image/svg+xml</dc:format>
        <dc:type
           rdf:resource="http://purl.org/dc/dcmitype/StillImage" />
        <dc:title></dc:title>
      </cc:Work>
    </rdf:RDF>
  </metadata>
  <g
     inkscape:label="Ebene 1"
     inkscape:groupmode="layer"
     id="layer1"
     transform="translate(0,-988.58268)">
    <g
       id="g7135"
       transform="translate(1092.0871,797.69528)">
      <path
         d="m -1028.4858,216.0906 c 9.4075,0.38875 9.8738,0.9325 12.3613,1.94375 -8.2413,1.6325 -22.9351,3.3425 -37.4725,1.86625 -2.4888,-0.31125 -8.7863,-1.4775 -11.6626,-3.11 -1.2437,-0.7 -4.1199,-2.255 -3.8875,-5.20875 0.2338,-2.87625 4.2763,-5.98625 5.9863,-6.9975 11.3512,-6.68625 23.5575,-8.94 36.385,-10.96125 -9.7175,1.165 -16.4813,2.565 -22.7013,4.12 -15.3162,3.8875 -31.4087,11.04 -37.1624,18.3475 -2.4875,3.11 -3.6538,6.60875 -1.9438,9.79625 3.0325,5.675 11.8175,8.55125 21.6912,9.95125 -3.3425,-1.01125 -7.3862,-2.09875 -9.1737,-4.51 -0.6225,-0.855 -0.855,-2.6425 1.1663,-4.275 4.8975,-3.965 8.7075,-5.365 8.7075,-5.365 l 9.7962,2.3325 -1.7888,1.32125 c -0.855,0.545 -1.2437,1.4 -0.7774,2.41 1.0112,1.4775 2.3325,2.0225 3.4212,2.56625 11.5837,4.665 33.1975,0.54375 40.2713,-4.5875 1.9437,-1.39875 3.965,-2.72 4.1212,-5.28625 0.077,-1.4775 -1.0887,-2.565 -1.7887,-3.11 -4.0425,-2.87625 -10.8838,-3.1875 -15.5488,-3.3425 -8.4738,-0.15625 -10.5738,-1.08875 -12.9063,-2.48875 15.55,-2.7975 29.8551,-3.4975 43.7713,-0.69875 3.3425,0.855 7.38625,2.25375 8.8625,5.05375 1.08875,2.02125 0.0788,4.43125 -1.94375,6.37375 -4.35375,4.27625 -12.04995,6.9975 -17.02625,8.78625 10.2625,-3.26625 16.56,-5.05375 26.1225,-10.8075 4.97625,-2.95375 11.89625,-8.785 10.49625,-14.84875 -1.6325,-7.3075 -15.005,-10.185 -15.005,-10.185 0,0 2.95375,1.01125 4.43125,2.79875 1.3225,1.63375 1.24375,2.955 1.08875,3.49875 -1.24375,4.35375 -6.91875,4.97625 -10.80625,6.375 l -10.7287,-1.6325 c 0,0 1.865,-1.01 2.7987,-1.6325 1.01,-0.7775 1.6325,-1.7875 1.16625,-3.0325 -0.93375,-1.7875 -2.41125,-2.6425 -4.50995,-3.265 -11.6613,-3.42 -26.7438,-1.47625 -37.1625,4.51 -2.4875,1.55375 -5.8301,3.65375 -6.1413,6.76375 -0.155,1.39875 1.01,3.11 2.7212,4.0425 5.4413,2.64375 9.7963,2.3325 14.7713,2.4875"
         style="fill:#dc1319;fill-opacity:1;fill-rule:nonzero;stroke:none"
         id="path4184"
         inkscape:connector-curvature="0" />
      <g
         transform="matrix(1.25,0,0,-1.25,-973.2858,193.7781)"
         id="g4186">
        <path
           inkscape:connector-curvature="0"
           id="path4188"
           style="fill:none;stroke:#000000;stroke-width:0.373;stroke-linecap:butt;stroke-linejoin:miter;stroke-miterlimit:4;stroke-dasharray:none;stroke-opacity:1"
           d="m 0,0 c 1.031,0 1.866,-0.835 1.866,-1.866 0,-1.03 -0.835,-1.866 -1.866,-1.866 -1.031,0 -1.866,0.836 -1.866,1.866 C -1.866,-0.835 -1.031,0 0,0 Z" />
      </g>
      <g
         transform="matrix(1.25,0,0,-1.25,-974.37455,197.43185)"
         id="g4190">
        <path
           inkscape:connector-curvature="0"
           id="path4192"
           style="fill:#000000;fill-opacity:1;fill-rule:nonzero;stroke:none"
           d="m 0,0 0,2.177 0.933,0 c 0.187,0 0.311,0 0.435,-0.062 C 1.493,2.052 1.555,1.99 1.617,1.928 1.679,1.804 1.679,1.742 1.679,1.617 1.679,1.431 1.617,1.306 1.555,1.244 1.431,1.12 1.306,1.057 1.12,1.057 1.182,0.995 1.244,0.995 1.306,0.933 1.368,0.871 1.493,0.746 1.555,0.622 L 1.928,0 1.555,0 1.244,0.435 C 1.182,0.56 1.12,0.684 1.057,0.746 0.995,0.809 0.933,0.871 0.933,0.871 c -0.062,0 -0.062,0.062 -0.124,0.062 -0.063,0 -0.063,0 -0.187,0 l -0.311,0 0,-0.995 L 0,-0.062 0,0 Z m 0.311,1.182 0.622,0 c 0.124,0 0.249,0 0.311,0.062 0.062,0 0.124,0.062 0.187,0.124 0.062,0.063 0.062,0.125 0.062,0.187 0,0.124 -0.062,0.187 -0.125,0.249 C 1.306,1.866 1.182,1.928 0.995,1.928 l -0.684,0 0,-0.746" />
      </g>
      <g
         transform="matrix(1.25,0,0,-1.25,-974.37455,197.43185)"
         id="g4194">
        <path
           inkscape:connector-curvature="0"
           id="path4196"
           style="fill:none;stroke:#000000;stroke-width:0.124;stroke-linecap:butt;stroke-linejoin:miter;stroke-miterlimit:4;stroke-dasharray:none;stroke-opacity:1"
           d="m 0,0 0,2.177 0.933,0 c 0.187,0 0.311,0 0.435,-0.062 C 1.493,2.052 1.555,1.99 1.617,1.928 1.679,1.804 1.679,1.742 1.679,1.617 1.679,1.431 1.617,1.306 1.555,1.244 1.431,1.12 1.306,1.057 1.12,1.057 1.182,0.995 1.244,0.995 1.306,0.933 1.368,0.871 1.493,0.746 1.555,0.622 L 1.928,0 1.555,0 1.244,0.435 C 1.182,0.56 1.12,0.684 1.057,0.746 0.995,0.809 0.933,0.871 0.933,0.871 c -0.062,0 -0.062,0.062 -0.124,0.062 -0.063,0 -0.063,0 -0.187,0 l -0.311,0 0,-0.995 L 0,-0.062 0,0 Z" />
        <g
           transform="translate(0.311,1.182)"
           id="g4198">
          <path
             inkscape:connector-curvature="0"
             id="path4200"
             style="fill:none;stroke:#000000;stroke-width:0.124;stroke-linecap:butt;stroke-linejoin:miter;stroke-miterlimit:4;stroke-dasharray:none;stroke-opacity:1"
             d="m 0,0 0.622,0 c 0.124,0 0.249,0 0.311,0.062 0.062,0 0.125,0.062 0.187,0.125 C 1.182,0.249 1.182,0.311 1.182,0.373 1.182,0.498 1.12,0.56 1.058,0.622 0.995,0.684 0.871,0.746 0.684,0.746 L 0,0.746 0,0 Z" />
        </g>
      </g>
      <path
         inkscape:connector-curvature="0"
         id="path4202"
         style="fill:#000000;fill-opacity:1;fill-rule:nonzero;stroke:none"
         d="m -1077.1546,251.8531 1.8659,0 0,-13.13875 -1.8659,0 0,13.13875 z" />
      <g
         transform="matrix(1.25,0,0,-1.25,-1064.0146,251.93185)"
         id="g4204">
        <path
           inkscape:connector-curvature="0"
           id="path4206"
           style="fill:#000000;fill-opacity:1;fill-rule:nonzero;stroke:none"
           d="m 0,0 0,1.555 -3.732,0 0,9.018 -1.492,0 0,-10.573" />
      </g>
      <path
         inkscape:connector-curvature="0"
         id="path4208"
         style="fill:#000000;fill-opacity:1;fill-rule:nonzero;stroke:none"
         d="m -1061.1383,251.8531 1.866,0 0,-13.13875 -1.866,0 0,13.13875 z" />
      <g
         transform="matrix(1.25,0,0,-1.25,-1048.932,248.12185)"
         id="g4210">
        <path
           inkscape:connector-curvature="0"
           id="path4212"
           style="fill:#000000;fill-opacity:1;fill-rule:nonzero;stroke:none"
           d="m 0,0 0,-1.493 -2.986,0 0,7.526 2.986,0 0,-1.244 1.493,0 0,1.182 C 1.493,6.717 0.746,7.463 0,7.463 l -2.986,0 c -0.746,0 -1.492,-0.746 -1.492,-1.492 l 0,-7.588 c 0,-0.746 0.746,-1.493 1.492,-1.493 l 2.986,0 c 0.746,0 1.493,0.747 1.493,1.493 L 1.493,0 0,0" />
      </g>
      <g
         transform="matrix(1.25,0,0,-1.25,-1030.1183,243.45685)"
         id="g4214">
        <path
           inkscape:connector-curvature="0"
           id="path4216"
           style="fill:#000000;fill-opacity:1;fill-rule:nonzero;stroke:none"
           d="m 0,0 2.986,-6.779 1.492,0 0,10.573 -1.492,0 0,-6.779 L 0,3.794 l -1.555,0 0,-10.573 1.555,0" />
      </g>
      <g
         transform="matrix(1.25,0,0,-1.25,-1003.8396,251.93185)"
         id="g4218">
        <path
           inkscape:connector-curvature="0"
           id="path4220"
           style="fill:#000000;fill-opacity:1;fill-rule:nonzero;stroke:none"
           d="m 0,0 0,1.555 -3.732,0 0,9.018 -1.492,0 0,-10.573" />
      </g>
      <g
         transform="matrix(1.25,0,0,-1.25,-1037.6596,251.93185)"
         id="g4222">
        <path
           inkscape:connector-curvature="0"
           id="path4224"
           style="fill:#000000;fill-opacity:1;fill-rule:nonzero;stroke:none"
           d="m 0,0 c 0.746,0 1.493,0.746 1.493,1.493 l 0,7.588 c 0,0.746 -0.747,1.492 -1.493,1.492 l -2.986,0 c -0.746,0 -1.492,-0.746 -1.492,-1.492 l 0,-7.588 C -4.478,0.746 -3.732,0 -2.986,0 M 0,1.555 l -2.9855,0 0,7.5257 2.9855,0 0,-7.5257 z" />
      </g>
      <g
         transform="matrix(1.25,0,0,-1.25,-997.6983,238.71435)"
         id="g4226">
        <path
           inkscape:connector-curvature="0"
           id="path4228"
           style="fill:#000000;fill-opacity:1;fill-rule:nonzero;stroke:none"
           d="m 0,0 -3.048,-10.511 1.555,0 0.684,2.301 3.11,0 0.56,-2.301 1.617,0 L 1.493,0 0,0 Z m 0.746,-2.488 1.12,-4.291 -2.301,0 1.181,4.291" />
      </g>
      <g
         transform="matrix(1.25,0,0,-1.25,-981.2933,246.7231)"
         id="g4230">
        <path
           inkscape:connector-curvature="0"
           id="path4232"
           style="fill:#000000;fill-opacity:1;fill-rule:nonzero;stroke:none"
           d="M 0,0 -1.119,1.119 0,2.239 0,4.851 c 0,0.747 -0.746,1.493 -1.493,1.493 l -4.54,0 0,-10.511 4.54,0 C -0.746,-4.167 0,-3.421 0,-2.674 L 0,0 Z m -4.478,4.914 2.9853,0 0,-2.9855 -2.9853,0 0,2.9855 z m 0,-4.541 2.9853,0 0,-2.9853 -2.9853,0 0,2.9853 z" />
      </g>
      <g
         transform="matrix(1.25,0,0,-1.25,-1087.4945,241.66935)"
         id="g4234">
        <path
           inkscape:connector-curvature="0"
           id="path4236"
           style="fill:#000000;fill-opacity:1;fill-rule:nonzero;stroke:none"
           d="m 0,0 c 0,-0.809 0,-0.871 0.56,-1.182 l 2.923,-1.493 c 0.746,-0.373 0.995,-0.87 0.995,-1.43 l 0,-2.612 C 4.478,-7.464 3.732,-8.21 2.985,-8.21 L 0,-8.21 c -0.746,0 -1.493,0.746 -1.493,1.493 l 0,1.555 1.493,0 0,-1.493 2.985,0 0,1.43 c 0,0.995 0,0.995 -0.622,1.369 L 0,-2.675 c -0.933,0.498 -1.555,0.996 -1.555,1.742 l 0,1.866 c 0,0.746 0.746,1.493 1.493,1.493 l 2.985,0 c 1.058,0 1.493,-0.56 1.493,-1.493 l 0,-1.244 -1.493,0 L 2.861,0.933 0,0.933 0,0" />
      </g>
      <g
         transform="matrix(1.25,0,0,-1.25,-976.5508,241.66935)"
         id="g4238">
        <path
           inkscape:connector-curvature="0"
           id="path4240"
           style="fill:#000000;fill-opacity:1;fill-rule:nonzero;stroke:none"
           d="m 0,0 c 0,-0.809 0,-0.871 0.56,-1.182 l 2.923,-1.493 c 0.746,-0.373 0.995,-0.87 0.995,-1.492 l 0,-2.55 C 4.478,-7.464 3.732,-8.21 2.985,-8.21 L 0,-8.21 c -0.746,0 -1.493,0.746 -1.493,1.493 l 0,1.555 1.493,0 0,-1.493 2.985,0 0,1.43 c 0,0.995 0,0.995 -0.622,1.369 L 0,-2.675 c -0.933,0.498 -1.555,0.996 -1.555,1.742 l 0,1.866 c 0,0.746 0.746,1.493 1.493,1.493 l 2.985,0 c 1.057,0 1.493,-0.56 1.493,-1.493 l 0,-1.244 -1.431,0 0,1.244 L 0,0.933 0,0" />
      </g>
    </g>
  </g>
</svg>
